<mxfile host="Electron" agent="Mozilla/5.0 (Windows NT 10.0; Win64; x64) AppleWebKit/537.36 (KHTML, like Gecko) draw.io/28.0.6 Chrome/138.0.7204.100 Electron/37.2.3 Safari/537.36" version="28.0.6">
  <diagram name="Trang-1" id="bVS24V2GnGFoP17K6smT">
    <mxGraphModel dx="1042" dy="626" grid="1" gridSize="10" guides="1" tooltips="1" connect="1" arrows="1" fold="1" page="1" pageScale="1" pageWidth="827" pageHeight="1169" math="0" shadow="0">
      <root>
        <mxCell id="0" />
        <mxCell id="1" parent="0" />
        <mxCell id="yp8IIE8HJEMQq_D4N69C-4" style="edgeStyle=orthogonalEdgeStyle;rounded=0;orthogonalLoop=1;jettySize=auto;html=1;" edge="1" parent="1" source="yp8IIE8HJEMQq_D4N69C-1" target="yp8IIE8HJEMQq_D4N69C-3">
          <mxGeometry relative="1" as="geometry" />
        </mxCell>
        <mxCell id="yp8IIE8HJEMQq_D4N69C-1" value="&lt;font style=&quot;font-size: 24px;&quot;&gt;Start&lt;/font&gt;" style="ellipse;whiteSpace=wrap;html=1;fillColor=#60a917;fontColor=#ffffff;strokeColor=#2D7600;" vertex="1" parent="1">
          <mxGeometry x="320" y="50" width="120" height="80" as="geometry" />
        </mxCell>
        <mxCell id="yp8IIE8HJEMQq_D4N69C-6" style="edgeStyle=orthogonalEdgeStyle;rounded=0;orthogonalLoop=1;jettySize=auto;html=1;entryX=0.5;entryY=0;entryDx=0;entryDy=0;" edge="1" parent="1" source="yp8IIE8HJEMQq_D4N69C-3" target="yp8IIE8HJEMQq_D4N69C-5">
          <mxGeometry relative="1" as="geometry" />
        </mxCell>
        <mxCell id="yp8IIE8HJEMQq_D4N69C-3" value="Liệt kê các công việc cần làm trong ngày" style="shape=parallelogram;perimeter=parallelogramPerimeter;whiteSpace=wrap;html=1;fixedSize=1;" vertex="1" parent="1">
          <mxGeometry x="255" y="190" width="250" height="80" as="geometry" />
        </mxCell>
        <mxCell id="yp8IIE8HJEMQq_D4N69C-8" style="edgeStyle=orthogonalEdgeStyle;rounded=0;orthogonalLoop=1;jettySize=auto;html=1;" edge="1" parent="1" source="yp8IIE8HJEMQq_D4N69C-5" target="yp8IIE8HJEMQq_D4N69C-7">
          <mxGeometry relative="1" as="geometry" />
        </mxCell>
        <mxCell id="yp8IIE8HJEMQq_D4N69C-5" value="Chọn công việc cần làm trước" style="rhombus;whiteSpace=wrap;html=1;" vertex="1" parent="1">
          <mxGeometry x="310" y="320" width="140" height="120" as="geometry" />
        </mxCell>
        <mxCell id="yp8IIE8HJEMQq_D4N69C-10" style="edgeStyle=orthogonalEdgeStyle;rounded=0;orthogonalLoop=1;jettySize=auto;html=1;entryX=0.5;entryY=0;entryDx=0;entryDy=0;" edge="1" parent="1" source="yp8IIE8HJEMQq_D4N69C-7" target="yp8IIE8HJEMQq_D4N69C-9">
          <mxGeometry relative="1" as="geometry" />
        </mxCell>
        <mxCell id="yp8IIE8HJEMQq_D4N69C-7" value="Hoàn thành và&lt;span style=&quot;white-space: pre;&quot;&gt;&#x9;&lt;/span&gt;công việc và đánh dấu đã xong" style="rounded=0;whiteSpace=wrap;html=1;" vertex="1" parent="1">
          <mxGeometry x="275" y="490" width="210" height="60" as="geometry" />
        </mxCell>
        <mxCell id="yp8IIE8HJEMQq_D4N69C-15" style="edgeStyle=orthogonalEdgeStyle;rounded=0;orthogonalLoop=1;jettySize=auto;html=1;entryX=1;entryY=0.5;entryDx=0;entryDy=0;" edge="1" parent="1" source="yp8IIE8HJEMQq_D4N69C-9" target="yp8IIE8HJEMQq_D4N69C-12">
          <mxGeometry relative="1" as="geometry" />
        </mxCell>
        <mxCell id="yp8IIE8HJEMQq_D4N69C-16" style="edgeStyle=orthogonalEdgeStyle;rounded=0;orthogonalLoop=1;jettySize=auto;html=1;" edge="1" parent="1" source="yp8IIE8HJEMQq_D4N69C-9" target="yp8IIE8HJEMQq_D4N69C-13">
          <mxGeometry relative="1" as="geometry" />
        </mxCell>
        <mxCell id="yp8IIE8HJEMQq_D4N69C-9" value="Kiểm tra công việc chưa hoàn thành" style="rounded=0;whiteSpace=wrap;html=1;" vertex="1" parent="1">
          <mxGeometry x="280" y="600" width="200" height="55" as="geometry" />
        </mxCell>
        <mxCell id="yp8IIE8HJEMQq_D4N69C-14" style="edgeStyle=orthogonalEdgeStyle;rounded=0;orthogonalLoop=1;jettySize=auto;html=1;entryX=0;entryY=0.5;entryDx=0;entryDy=0;" edge="1" parent="1" source="yp8IIE8HJEMQq_D4N69C-12" target="yp8IIE8HJEMQq_D4N69C-7">
          <mxGeometry relative="1" as="geometry">
            <Array as="points">
              <mxPoint x="230" y="520" />
            </Array>
          </mxGeometry>
        </mxCell>
        <mxCell id="yp8IIE8HJEMQq_D4N69C-12" value="Nếu có" style="rhombus;whiteSpace=wrap;html=1;" vertex="1" parent="1">
          <mxGeometry x="190" y="700" width="80" height="80" as="geometry" />
        </mxCell>
        <mxCell id="yp8IIE8HJEMQq_D4N69C-19" style="edgeStyle=orthogonalEdgeStyle;rounded=0;orthogonalLoop=1;jettySize=auto;html=1;entryX=0.5;entryY=0;entryDx=0;entryDy=0;" edge="1" parent="1" source="yp8IIE8HJEMQq_D4N69C-13" target="yp8IIE8HJEMQq_D4N69C-18">
          <mxGeometry relative="1" as="geometry" />
        </mxCell>
        <mxCell id="yp8IIE8HJEMQq_D4N69C-13" value="Nếu không" style="rhombus;whiteSpace=wrap;html=1;" vertex="1" parent="1">
          <mxGeometry x="520" y="700" width="80" height="80" as="geometry" />
        </mxCell>
        <mxCell id="yp8IIE8HJEMQq_D4N69C-18" value="End" style="ellipse;whiteSpace=wrap;html=1;fillColor=#a20025;fontColor=#ffffff;strokeColor=#6F0000;fontSize=19;" vertex="1" parent="1">
          <mxGeometry x="330" y="830" width="120" height="80" as="geometry" />
        </mxCell>
      </root>
    </mxGraphModel>
  </diagram>
</mxfile>
